<?xml version="1.0" encoding="utf-8"?>
<!-- Generator: Adobe Illustrator 27.3.1, SVG Export Plug-In . SVG Version: 6.00 Build 0)  -->
<svg version="1.1" id="Layer_1" xmlns="http://www.w3.org/2000/svg" xmlns:xlink="http://www.w3.org/1999/xlink" x="0px" y="0px"
	 viewBox="0 0 261 260" style="enable-background:new 0 0 261 260;" xml:space="preserve">
<style type="text/css">
	.st0{fill:#1D1F23;}
	.st1{fill:none;stroke:#000000;}
	.st2{fill:#FFFFFF;}
</style>
<g>
	<path class="st0" d="M72.2,36h116c17.7,0,32,14.3,32,32v116c0,17.7-14.3,32-32,32h-116c-17.7,0-32-14.3-32-32V68
		C40.2,50.3,54.5,36,72.2,36z"/>
	<path class="st1" d="M72.2,36.5h116c17.4,0,31.5,14.1,31.5,31.5v116c0,17.4-14.1,31.5-31.5,31.5h-116c-17.4,0-31.5-14.1-31.5-31.5
		V68C40.7,50.6,54.8,36.5,72.2,36.5z"/>
</g>
<path class="st2" d="M198.4,163.3c-4.9,1.3-8,0.1-10.7-4.1l-19.5-27l-2.8-3.7l-22.8,30.8c-2.6,3.7-5.3,5.3-10.2,4l29.2-39.1
	l-27.1-35.3c4.7-0.9,7.9-0.4,10.8,3.7l20.2,27.3l20.4-27.2c2.6-3.7,5.4-5.1,10.1-3.7l-10.5,14l-14.3,18.6c-1.7,2.1-1.5,3.6,0.1,5.6
	L198.4,163.3z M62.6,123.6l2.4-11.7c6.5-23.2,33.1-32.9,51.4-18.5c10.7,8.4,13.4,20.4,12.9,33.7H68.9c-0.9,24.1,16.4,38.6,38.5,31.2
	c7.7-2.6,12.3-8.7,14.6-16.3c1.2-3.8,3.1-4.4,6.6-3.3c-1.8,9.5-5.9,17.4-14.6,22.4c-13,7.4-31.6,5-41.3-5.3
	c-5.8-6-8.2-13.6-9.3-21.7c-0.2-1.3-0.5-2.6-0.8-3.9C62.6,128,62.6,125.8,62.6,123.6L62.6,123.6z M69,122h54.6
	c-0.4-17.4-11.2-29.8-26-29.9C81.4,92,69.7,104.1,69,122z"/>
</svg>
